<?xml version="1.0" standalone="no"?>
<!DOCTYPE svg PUBLIC "-//W3C//DTD SVG 1.1//EN" "http://www.w3.org/Graphics/SVG/1.1/DTD/svg11.dtd" >
<svg xmlns="http://www.w3.org/2000/svg" xmlns:xlink="http://www.w3.org/1999/xlink" version="1.1">
<metadata></metadata>
<defs>
<font id="lucida_sans_unicoderegular" horiz-adv-x="1295" >
<font-face units-per-em="2048" ascent="1638" descent="-410" />
<missing-glyph horiz-adv-x="648" />
<glyph horiz-adv-x="0" />
<glyph unicode="&#xd;" horiz-adv-x="1536" />
<glyph unicode=" "  horiz-adv-x="648" />
<glyph unicode="&#x09;" horiz-adv-x="648" />
<glyph unicode="&#xa0;" horiz-adv-x="648" />
<glyph unicode="!" horiz-adv-x="648" d="M225 0v197h197v-197h-197zM225 1184v296h197v-296l-24 -789h-148z" />
<glyph unicode="&#x22;" horiz-adv-x="765" d="M111 1579h197l-24 -493h-148zM456 1579h198l-25 -493h-148z" />
<glyph unicode="#" d="M15 444l25 124h305l87 345h-324l25 123h329l112 444h127l-111 -444h263l111 444h128l-111 -444h299l-24 -123h-306l-87 -345h324l-25 -124h-329l-111 -444h-128l111 444h-263l-111 -444h-128l111 444h-299zM473 568h263l87 345h-264z" />
<glyph unicode="$" d="M216 83v170q226 -105 395 -105v531q-203 124 -277.5 219t-74.5 227q0 148 96.5 245.5t255.5 109.5v124h98v-124q146 0 321 -67v-161q-192 83 -321 93v-527q54 -33 81 -49q154 -93 209.5 -167.5t55.5 -187.5q0 -157 -93 -268.5t-253 -145.5v-123h-98v123q-176 0 -395 83z M432 1129q0 -76 37 -127.5t142 -118.5v456q-179 -56 -179 -210zM709 160q173 62 173 225q0 71 -33 116.5t-140 119.5v-461z" />
<glyph unicode="%" horiz-adv-x="1369" d="M12 1110q0 171 85 270.5t230 99.5q144 0 229 -99.5t85 -270.5q0 -170 -85 -270t-229 -100q-145 0 -230 100t-85 270zM24 -37l1166 1554h154l-1165 -1554h-155zM160 1110q0 -124 45 -197.5t122 -73.5q76 0 121 73.5t45 197.5q0 125 -45 198.5t-121 73.5q-77 0 -122 -73.5 t-45 -198.5zM728 370q0 170 84.5 270t229.5 100t230 -100t85 -270t-85 -270t-230 -100t-229.5 100t-84.5 270zM876 370q0 -125 45 -198t121 -73q77 0 122 73t45 198t-45 198.5t-122 73.5q-76 0 -121 -73.5t-45 -198.5z" />
<glyph unicode="&#x26;" horiz-adv-x="1428" d="M74 440q0 342 361 464q-100 181 -100 301q0 131 104 221.5t254 90.5q144 0 237.5 -84.5t93.5 -214.5q0 -222 -325 -386q149 -264 347 -493q91 133 91 376l-1 72h196q0 -328 -196 -566q90 -114 205 -221h-280l-73 88q-164 -125 -383 -125q-232 0 -381.5 134.5 t-149.5 342.5zM271 488q0 -157 106.5 -267t259.5 -110q139 0 265 91q-210 258 -400 585q-231 -92 -231 -299zM533 1214q0 -102 94 -257q212 97 212 258q0 70 -42.5 112t-111.5 42t-110.5 -42.5t-41.5 -112.5z" />
<glyph unicode="'" horiz-adv-x="469" d="M111 1579h247l-50 -543h-148z" />
<glyph unicode="(" horiz-adv-x="666" d="M123 642q0 285 126.5 537.5t342.5 399.5v-136q-147 -160 -209.5 -344t-62.5 -457q0 -274 62.5 -458t209.5 -344v-136q-216 147 -342.5 399.5t-126.5 538.5z" />
<glyph unicode=")" horiz-adv-x="666" d="M74 -160q147 160 209 344t62 458q0 273 -62 457.5t-209 343.5v136q216 -147 342.5 -399.5t126.5 -537.5q0 -286 -126.5 -538.5t-342.5 -399.5v136z" />
<glyph unicode="*" horiz-adv-x="987" d="M110 1148l46 141l284 -125q-29 -25 -29 -67l2 -15zM211 838l206 231q20 -45 70 -51l-156 -267zM420 1480h148l-31 -308q-18 11 -43 11t-43 -11zM500 1018q51 6 70 51l207 -231l-120 -87zM548 1164l284 125l45 -141l-303 -66l3 15q0 41 -29 67z" />
<glyph unicode="+" horiz-adv-x="1628" d="M222 543v99h543v542h99v-542h542v-99h-542v-543h-99v543h-543z" />
<glyph unicode="," horiz-adv-x="648" d="M200 0v247h247v-214q0 -329 -247 -354v74q96 27 96 227v20h-96z" />
<glyph unicode="-" horiz-adv-x="1185" d="M148 543v123h888v-123h-888z" />
<glyph unicode="." horiz-adv-x="648" d="M200 0v247h247v-247h-247z" />
<glyph unicode="/" horiz-adv-x="1074" d="M222 -296l526 1777h104l-526 -1777h-104z" />
<glyph unicode="0" d="M130 740q0 350 142.5 563.5t375.5 213.5q234 0 376 -213t142 -564q0 -350 -142 -563.5t-376 -213.5q-233 0 -375.5 213.5t-142.5 563.5zM340 740q0 -629 308 -629q309 0 309 629t-309 629q-308 0 -308 -629z" />
<glyph unicode="1" d="M302 1332v124l432 37v-1493h-198v1332h-234z" />
<glyph unicode="2" d="M170 0v173q86 201 348 438l113 101q218 197 218 391q0 124 -74.5 195t-205.5 71q-153 0 -362 -119v174q197 93 392 93q208 0 333.5 -112t125.5 -297q0 -133 -63.5 -236t-236.5 -250l-76 -65q-237 -201 -274 -384h643v-173h-881z" />
<glyph unicode="3" d="M208 11v184q211 -84 332 -84q143 0 231.5 82t88.5 214q0 312 -437 312h-78v133l69 1q410 0 410 289q0 227 -272 227q-146 0 -324 -83v172q175 59 337 59q221 0 339 -88t118 -255q0 -261 -309 -372q358 -83 358 -392q0 -209 -138 -328t-379 -119q-137 0 -346 48z" />
<glyph unicode="4" d="M105 419v149l666 912h185v-900h198v-161h-198v-419h-185v419h-666zM298 580h486v658z" />
<glyph unicode="5" d="M249 -6v176q147 -59 280 -59q146 0 229.5 86t83.5 237q0 162 -118 247.5t-341 85.5q-52 0 -109 -7v720h749v-172h-576v-390q285 0 445 -131t160 -363q0 -216 -145.5 -338.5t-401.5 -122.5q-114 0 -256 31z" />
<glyph unicode="6" d="M137 707q0 470 241 690q131 121 362 121q134 0 332 -56v-172q-209 80 -344 80q-376 0 -376 -603q141 183 355 183q194 0 317.5 -128.5t123.5 -329.5q0 -231 -138.5 -380t-352.5 -149q-244 0 -382 197.5t-138 546.5zM360 522q0 -186 85.5 -298.5t226.5 -112.5 q128 0 203 92t75 250q0 164 -76 259.5t-208 95.5q-126 0 -216 -84t-90 -202z" />
<glyph unicode="7" d="M222 1295v185h950v-185q-569 -839 -637 -1295h-227q29 173 82.5 299t189.5 346l404 650h-762z" />
<glyph unicode="8" d="M177 364q0 266 294 442q-122 85 -169.5 158t-47.5 176q0 168 123 273t321 105q183 0 296.5 -89t113.5 -231q0 -215 -276 -392q335 -164 335 -423q0 -185 -140 -302.5t-360 -117.5t-355 110.5t-135 290.5zM374 395q0 -127 82 -205.5t216 -78.5q129 0 210.5 67t81.5 174 q0 86 -50.5 145.5t-195.5 145.5l-140 83q-119 -92 -161.5 -160.5t-42.5 -170.5zM433 1177q0 -83 61.5 -149t227.5 -160q207 136 207 303q0 89 -69.5 143.5t-181.5 54.5q-109 0 -177 -53.5t-68 -138.5z" />
<glyph unicode="9" d="M156 991q0 227 138.5 376.5t348.5 149.5q241 0 380 -193.5t139 -529.5q0 -214 -67 -402.5t-180 -293.5q-145 -135 -381 -135q-116 0 -301 46v167q188 -65 320 -65q184 0 287.5 156.5t103.5 435.5q-150 -185 -341 -185q-187 0 -317 137.5t-130 335.5zM353 1025 q0 -169 77 -267t208 -98q126 0 214.5 85t88.5 205q0 189 -85.5 304.5t-224.5 115.5q-130 0 -204 -92t-74 -253z" />
<glyph unicode=":" horiz-adv-x="648" d="M225 0v197h197v-197h-197zM225 888v198h197v-198h-197z" />
<glyph unicode=";" horiz-adv-x="648" d="M225 0v197h197v-166q0 -303 -197 -352v74q71 37 71 224v23h-71zM225 888v198h197v-198h-197z" />
<glyph unicode="&#x3c;" horiz-adv-x="1628" d="M222 592l1184 592v-110l-961 -483l961 -481v-110z" />
<glyph unicode="=" horiz-adv-x="1628" d="M222 358v98h1184v-98h-1184zM222 728v99h1184v-99h-1184z" />
<glyph unicode="&#x3e;" horiz-adv-x="1628" d="M222 0v110l962 483l-962 481v110l1184 -592z" />
<glyph unicode="?" horiz-adv-x="864" d="M37 1295v167q185 56 348 56q203 0 322.5 -91.5t119.5 -247.5q0 -88 -34.5 -151.5t-132.5 -156.5l-62 -58q-93 -88 -122 -147.5t-29 -160.5v-110h-197v54q0 112 30.5 186t116.5 173l63 73q157 180 157 295q0 89 -69.5 141t-187.5 52q-151 0 -323 -74zM250 0v197h197v-197 h-197z" />
<glyph unicode="@" horiz-adv-x="1758" d="M93 576q0 339 244 620q130 149 315.5 235t375.5 86q279 0 467.5 -180t188.5 -447q0 -247 -151 -420.5t-366 -173.5q-167 0 -167 115q0 42 21 105l40 126h-12q-181 -346 -387 -346q-87 0 -140 61t-53 163q0 141 72 300.5t178 251.5q122 106 275 106q31 0 79 -3 q49 -3 78 -3h137l-126 -636q-6 -32 -6 -62q0 -67 76 -67q133 0 237 142t104 324q0 230 -159 382t-401 152q-317 0 -563 -249.5t-246 -571.5q0 -225 154.5 -368.5t397.5 -143.5q157 0 301 72l36 -102q-180 -81 -353 -81q-281 0 -464 173.5t-183 439.5zM623 561 q0 -142 83 -142q61 0 161.5 113.5t205.5 300.5l39 195q-92 33 -160 33q-100 0 -164 -56q-68 -59 -116.5 -189t-48.5 -255z" />
<glyph unicode="A" horiz-adv-x="1413" d="M17 0l587 1480h208l578 -1480h-227l-161 410h-627l-163 -410h-195zM436 566h505l-252 638z" />
<glyph unicode="B" horiz-adv-x="1178" d="M191 0v1480h384q222 0 340.5 -84t118.5 -242q0 -128 -79 -228t-225 -155q363 -111 363 -401q0 -130 -80 -231q-61 -77 -147 -108t-239 -31h-436zM399 157h43q231 0 299 29q130 55 130 204q0 132 -118 219.5t-295 87.5h-59v-540zM399 830h67q169 0 261 72t92 205 q0 216 -338 216h-82v-493z" />
<glyph unicode="C" horiz-adv-x="1417" d="M104 739q0 371 191.5 574.5t540.5 203.5q198 0 465 -65v-197q-304 105 -469 105q-241 0 -373 -163t-132 -460q0 -284 141 -447t386 -163q209 0 449 129v-180q-219 -113 -478 -113q-345 0 -533 202t-188 574z" />
<glyph unicode="D" horiz-adv-x="1534" d="M191 0v1480h492q220 0 355.5 -49t234.5 -166q157 -186 157 -490q0 -343 -184 -556q-100 -117 -231.5 -168t-328.5 -51h-495zM401 157h269q288 0 408 155q129 165 129 443q0 261 -127 410q-77 91 -184 124.5t-322 33.5h-173v-1166z" />
<glyph unicode="E" horiz-adv-x="1110" d="M191 0v1480h827v-157h-617v-475h517v-155h-517v-536h660v-157h-870z" />
<glyph unicode="F" horiz-adv-x="1098" d="M191 0v1480h827v-157h-617v-496h518v-155h-518v-672h-210z" />
<glyph unicode="G" horiz-adv-x="1480" d="M104 740q0 370 191.5 573.5t538.5 203.5q223 0 467 -67v-194q-306 104 -469 104q-240 0 -372.5 -162.5t-132.5 -458.5q0 -293 142 -456t398 -163q105 0 227 37v482h209v-599q-269 -77 -469 -77q-353 0 -541.5 200.5t-188.5 576.5z" />
<glyph unicode="H" horiz-adv-x="1505" d="M191 0v1480h210v-624h704v624h210v-1480h-210v699h-704v-699h-210z" />
<glyph unicode="I" horiz-adv-x="590" d="M190 0v1480h210v-1480h-210z" />
<glyph unicode="J" horiz-adv-x="637" d="M-184 -89q120 -39 214 -39q118 0 165.5 69t47.5 239v1300h210v-1293q0 -483 -457 -483q-70 0 -180 21v186z" />
<glyph unicode="K" horiz-adv-x="1337" d="M191 0v1480h197v-728l599 728h211l-580 -706l683 -774h-266l-647 750v-750h-197z" />
<glyph unicode="L" horiz-adv-x="1092" d="M191 0v1480h210v-1323h666v-157h-876z" />
<glyph unicode="M" horiz-adv-x="1764" d="M191 0v1480h291l410 -1145l422 1145h260v-1480h-196v1204l-408 -1105h-203l-396 1108v-1207h-180z" />
<glyph unicode="N" horiz-adv-x="1513" d="M191 0v1480h206l745 -1143v1143h180v-1480h-205l-746 1143v-1143h-180z" />
<glyph unicode="O" horiz-adv-x="1591" d="M104 740q0 354 188.5 565.5t503.5 211.5t503.5 -211.5t188.5 -565.5t-188.5 -565.5t-503.5 -211.5t-503.5 211.5t-188.5 565.5zM327 742q0 -293 124 -457.5t345 -164.5t345 164.5t124 457.5q0 291 -124 454.5t-345 163.5t-345 -163.5t-124 -454.5z" />
<glyph unicode="P" horiz-adv-x="1132" d="M191 0v1480h403q174 0 268.5 -28.5t154.5 -100.5q79 -95 79 -259q0 -236 -160 -370t-444 -134h-93v-588h-208zM399 747h85q187 0 289 86t102 244q0 132 -80.5 189t-266.5 57h-129v-576z" />
<glyph unicode="Q" horiz-adv-x="1591" d="M104 740q0 354 188.5 565.5t503.5 211.5q316 0 504 -212t188 -568q0 -510 -379 -706q255 -112 529 -160l-133 -167q-349 113 -585 269q-94 -10 -145 -10q-298 0 -484.5 216t-186.5 561zM327 742q0 -293 124 -457.5t345 -164.5t345 164t124 456q0 293 -124 456.5 t-345 163.5t-345 -163.5t-124 -454.5z" />
<glyph unicode="R" d="M191 0v1480h448q213 0 326.5 -94t113.5 -273q0 -141 -78.5 -251t-220.5 -169l494 -693h-258l-421 626h-196v-626h-208zM399 783h68q194 0 295 79t101 231q0 230 -332 230h-132v-540z" />
<glyph unicode="S" horiz-adv-x="1103" d="M100 28v208q250 -116 412 -116q123 0 198.5 65.5t75.5 170.5q0 87 -49.5 148t-182.5 136l-102 59q-189 108 -266.5 203.5t-77.5 221.5q0 172 124 282.5t316 110.5q171 0 361 -57v-192q-234 92 -349 92q-109 0 -180 -58t-71 -146q0 -74 52 -131t190 -136l106 -60 q192 -109 268 -206t76 -233q0 -193 -142 -310t-377 -117q-150 0 -382 65z" />
<glyph unicode="T" d="M18 1323v157h1260v-157h-525v-1323h-210v1323h-525z" />
<glyph unicode="U" horiz-adv-x="1419" d="M179 548v932h210v-934q0 -223 82.5 -324.5t262.5 -101.5q176 0 249.5 95.5t73.5 323.5v941h184v-938q0 -194 -38 -298t-137 -183q-124 -98 -341 -98q-281 0 -413.5 142t-132.5 443z" />
<glyph unicode="V" horiz-adv-x="1339" d="M36 1480h210l458 -1212l442 1212h184l-537 -1480h-198z" />
<glyph unicode="W" horiz-adv-x="1752" d="M2 1480h202l303 -1169l279 1169h202l264 -1153l326 1153h171l-415 -1480h-209l-261 1141l-273 -1141h-208z" />
<glyph unicode="X" horiz-adv-x="1282" d="M16 0l491 743l-467 737h248l356 -558l374 558h198l-473 -715l485 -765h-248l-376 587l-389 -587h-199z" />
<glyph unicode="Y" horiz-adv-x="1276" d="M17 1480h240l384 -668l414 668h195l-529 -858v-622h-210v618z" />
<glyph unicode="Z" horiz-adv-x="1238" d="M95 0v168l795 1155h-746v157h998v-157l-795 -1155h795v-168h-1047z" />
<glyph unicode="[" horiz-adv-x="666" d="M197 -296v1875h395v-148h-222v-1579h222v-148h-395z" />
<glyph unicode="\" horiz-adv-x="1074" d="M222 1481h104l526 -1777h-104z" />
<glyph unicode="]" horiz-adv-x="666" d="M74 -148h222v1579h-222v148h395v-1875h-395v148z" />
<glyph unicode="^" d="M105 395l543 1085l543 -1085h-166l-377 754l-377 -754h-166z" />
<glyph unicode="_" horiz-adv-x="1024" d="M86 0h851v-148h-851v148z" />
<glyph unicode="`" horiz-adv-x="1258" d="M395 1604h228l241 -321h-148z" />
<glyph unicode="a" horiz-adv-x="1131" d="M103 273q0 178 149.5 273.5t429.5 95.5h46v131q0 189 -197 189q-153 0 -334 -96v163q199 81 375 81q181 0 267 -82.5t86 -254.5v-492q0 -169 104 -169q13 0 38 4l14 -109q-67 -32 -148 -32q-138 0 -176 163q-177 -163 -341 -163q-135 0 -224 84.5t-89 213.5zM300 305 q0 -71 50 -120t122 -49q123 0 256 109v281l-63 2q-164 0 -264.5 -61t-100.5 -162z" />
<glyph unicode="b" horiz-adv-x="1289" d="M197 -12v1591h197v-697q121 228 363 228q196 0 308.5 -143t112.5 -391q0 -270 -127.5 -435.5t-335.5 -165.5q-193 0 -321 148l-24 -135h-173zM394 259q152 -136 290 -136q136 0 210 113.5t74 319.5q0 382 -252 382q-165 0 -322 -179v-500z" />
<glyph unicode="c" horiz-adv-x="1049" d="M111 549q0 265 143.5 413t400.5 148q127 0 284 -35v-165q-167 49 -272 49q-152 0 -243 -113.5t-91 -302.5q0 -183 94 -296t246 -113q135 0 278 69v-170q-191 -58 -330 -58q-220 0 -365 163t-145 411z" />
<glyph unicode="d" horiz-adv-x="1289" d="M111 509q0 271 127.5 436t335.5 165q193 0 320 -148v617h198v-1579h-198v204q-120 -229 -362 -229q-196 0 -308.5 143t-112.5 391zM321 529q0 -381 252 -381q164 0 321 179v500q-153 135 -290 135q-135 0 -209 -113t-74 -320z" />
<glyph unicode="e" horiz-adv-x="1141" d="M111 548q0 247 133.5 405t341.5 158q197 0 304.5 -140.5t107.5 -398.5l-1 -60h-685q43 -387 379 -387q123 0 302 66v-156q-198 -60 -339 -60q-241 0 -392 159.5t-151 413.5zM321 660h479q0 303 -226 303q-227 0 -253 -303z" />
<glyph unicode="f" horiz-adv-x="753" d="M80 938v148h154v130q0 388 354 388q99 0 225 -33v-156q-133 41 -213 41q-97 0 -132.5 -46.5t-35.5 -172.5v-151h271v-148h-271v-938h-198v938h-154z" />
<glyph unicode="g" horiz-adv-x="1277" d="M111 550q0 248 131 404t339 156q182 0 313 -148v124h198v-790q0 -255 -26.5 -377.5t-99.5 -200.5q-129 -137 -403 -137q-188 0 -362 58l23 171q171 -81 338 -81q332 0 332 353v171q-51 -108 -145.5 -168t-210.5 -60q-197 0 -312 141.5t-115 383.5zM321 551 q0 -354 251 -354q171 0 322 179v451q-130 135 -283 135q-136 0 -213 -109t-77 -302z" />
<glyph unicode="h" horiz-adv-x="1271" d="M197 0v1579h197v-697q156 228 382 228q142 0 225.5 -89.5t83.5 -240.5v-780h-197v716q0 121 -35.5 172.5t-117.5 51.5q-181 0 -341 -237v-703h-197z" />
<glyph unicode="i" horiz-adv-x="592" d="M197 0v1086h197v-1086h-197zM197 1283v197h197v-197h-197z" />
<glyph unicode="j" horiz-adv-x="623" d="M-153 -213q138 -58 210 -58q82 0 127 44q30 30 37.5 68t7.5 159v1086h198v-1086q0 -419 -354 -419q-105 0 -226 50v156zM229 1283v197h198v-197h-198z" />
<glyph unicode="k" horiz-adv-x="1197" d="M197 0v1579h197v-1020l460 527h212l-439 -507l530 -579h-252l-511 557v-557h-197z" />
<glyph unicode="l" horiz-adv-x="592" d="M197 0v1579h197v-1579h-197z" />
<glyph unicode="m" horiz-adv-x="1912" d="M197 0v1086h197v-204q144 228 370 228q218 0 297 -228q140 229 364 229q143 0 222.5 -84.5t79.5 -236.5v-790h-198v759q0 186 -147 186q-153 0 -321 -217v-728h-198v759q0 187 -150 187q-149 0 -319 -218v-728h-197z" />
<glyph unicode="n" horiz-adv-x="1271" d="M197 0v1086h197v-204q156 228 382 228q142 0 225.5 -89.5t83.5 -240.5v-780h-197v716q0 121 -35.5 172.5t-117.5 51.5q-181 0 -341 -237v-703h-197z" />
<glyph unicode="o" horiz-adv-x="1258" d="M111 543q0 262 139.5 414.5t378.5 152.5t378.5 -152.5t139.5 -414.5t-139.5 -415t-378.5 -153t-378.5 153t-139.5 415zM321 543q0 -200 80.5 -310t227.5 -110t228 110t81 310t-81 309.5t-228 109.5t-227.5 -109.5t-80.5 -309.5z" />
<glyph unicode="p" horiz-adv-x="1289" d="M197 -395v1481h197v-204q121 228 363 228q196 0 308.5 -143t112.5 -391q0 -270 -127.5 -435.5t-335.5 -165.5q-193 0 -321 148v-518h-197zM394 259q152 -136 290 -136q136 0 210 113.5t74 319.5q0 382 -252 382q-165 0 -322 -179v-500z" />
<glyph unicode="q" horiz-adv-x="1289" d="M111 509q0 271 127.5 436t335.5 165q193 0 320 -148v124h198v-1481h-198v599q-120 -229 -362 -229q-196 0 -308.5 143t-112.5 391zM321 529q0 -381 252 -381q164 0 321 179v500q-153 135 -290 135q-135 0 -209 -113t-74 -320z" />
<glyph unicode="r" horiz-adv-x="838" d="M197 0v1086h197v-204q117 228 340 228q30 0 63 -5v-184q-51 17 -90 17q-187 0 -313 -222v-716h-197z" />
<glyph unicode="s" horiz-adv-x="1044" d="M157 38v181q193 -96 336 -96q85 0 141 46t56 115q0 101 -157 167l-115 49q-255 106 -255 305q0 142 100.5 223.5t275.5 81.5q91 0 225 -25l41 -8v-164q-165 49 -263 49q-86 0 -137.5 -37.5t-51.5 -100.5q0 -89 144 -150l95 -40q161 -68 228 -143.5t67 -188.5 q0 -143 -113 -235t-289 -92q-135 0 -328 63z" />
<glyph unicode="t" horiz-adv-x="766" d="M69 938v148h136v197l197 19v-216h284v-148h-284v-602q0 -213 184 -213q39 0 95 13v-136q-91 -25 -158 -25q-150 0 -234 86t-84 239v638h-136z" />
<glyph unicode="u" horiz-adv-x="1271" d="M185 306v780h197v-716q0 -122 35.5 -173.5t118.5 -51.5q180 0 340 237v704h197v-1086h-197v204q-157 -229 -381 -229q-142 0 -226 89.5t-84 241.5z" />
<glyph unicode="v" horiz-adv-x="1060" d="M18 1086h197l316 -845l333 845h184l-429 -1086h-197z" />
<glyph unicode="w" horiz-adv-x="1578" d="M12 1086h193l238 -841l257 841h197l225 -841l273 841h169l-354 -1086h-198l-230 841l-260 -841h-199z" />
<glyph unicode="x" horiz-adv-x="1256" d="M88 0l413 561l-401 525h234l317 -418l287 418h192l-376 -551l409 -535h-234l-327 430l-316 -430h-198z" />
<glyph unicode="y" horiz-adv-x="1070" d="M16 1086h213l311 -818l332 818h186l-593 -1481h-205l176 395z" />
<glyph unicode="z" horiz-adv-x="1174" d="M123 0v148l672 790h-641v148h884v-148l-672 -790h685v-148h-928z" />
<glyph unicode="{" horiz-adv-x="666" d="M25 568v148h49q153 0 153 161q0 68 -16 140l-19 87q-19 86 -19 168q0 133 95.5 215t262.5 92v-148h-28q-68 0 -113 -35.5t-45 -88.5q0 -24 13 -95l17 -102q11 -66 11 -157q0 -187 -147 -311q147 -125 147 -313q0 -90 -11 -156l-17 -102q-13 -71 -13 -96q0 -52 45.5 -87.5 t112.5 -35.5h28v-148q-168 10 -263 92.5t-95 215.5q0 82 19 167l19 87q15 72 15 142q0 160 -152 160h-49z" />
<glyph unicode="|" horiz-adv-x="765" d="M333 -296v1875h99v-1875h-99z" />
<glyph unicode="}" horiz-adv-x="666" d="M136 -148h28q67 0 112.5 35.5t45.5 87.5q0 25 -13 96l-17 102q-12 64 -12 158q0 185 147 311q-147 124 -147 312q0 92 12 156l17 102q13 71 13 97q0 51 -45.5 86.5t-112.5 35.5h-28v148q168 -10 263 -92t95 -216q0 -81 -19 -167l-19 -87q-16 -72 -16 -142 q0 -159 152 -159h50v-148h-50q-152 0 -152 -162q0 -68 16 -140l19 -87q19 -85 19 -168q0 -133 -95.5 -215t-262.5 -92v148z" />
<glyph unicode="~" d="M105 444q0 145 77 237t199 92q80 0 215 -71l107 -56l128 -69q45 -22 91 -22q53 0 87 49.5t34 128.5v7h148q-21 -333 -266 -333q-89 0 -245 80l-112 58l-119 62q-36 18 -71 18q-55 0 -90 -50.5t-35 -130.5h-148z" />
<glyph unicode="&#xa2;" d="M205 738q0 236 120 382t338 175v185h99v-185q133 -6 284 -46v-166q-177 60 -284 70v-840q136 0 284 68v-150q-149 -58 -284 -58v-173h-99v173q-203 20 -330.5 177t-127.5 388zM421 732q0 -330 242 -408v820q-242 -23 -242 -412z" />
<glyph unicode="&#xa3;" d="M247 0v173q210 67 210 316v227h-179v148h179v215q0 213 101.5 325.5t291.5 112.5q104 0 227 -30v-167q-124 49 -239 49q-97 0 -140.5 -54t-43.5 -176v-275h216v-148h-216v-127q0 -158 -36 -245t-137 -171h611v-173h-845z" />
<glyph unicode="&#xa5;" d="M80 1480h233l360 -575l388 575h179l-500 -740h296v-148h-296v-99h296v-148h-296v-345h-197v345h-296v148h296v99h-296v148h296z" />
<glyph unicode="&#xa8;" horiz-adv-x="1258" d="M345 1283v173h173v-173h-173zM740 1283v173h173v-173h-173z" />
<glyph unicode="&#xa9;" horiz-adv-x="1752" d="M99 740q0 322 228 549.5t549 227.5q322 0 549.5 -227.5t227.5 -549.5q0 -321 -227.5 -549t-549.5 -228q-321 0 -549 228t-228 549zM210 740q0 -230 157 -427q191 -239 509 -239t509 239q157 197 157 427q0 232 -157 427q-192 239 -509 239t-509 -239q-157 -195 -157 -427 zM475 735q0 202 118 322.5t315 120.5q92 0 226 -26l26 -5v-123q-136 56 -244 56q-132 0 -212.5 -94t-80.5 -247t83.5 -242.5t227.5 -89.5q113 0 226 62v-124q-141 -49 -255 -49q-189 0 -309.5 123t-120.5 316z" />
<glyph unicode="&#xab;" horiz-adv-x="1073" d="M111 543l395 444l98 -74l-296 -370l296 -370l-98 -74zM506 543l395 444l98 -74l-296 -370l296 -370l-98 -74z" />
<glyph unicode="&#xad;" horiz-adv-x="1185" d="M148 543v123h888v-123h-888z" />
<glyph unicode="&#xae;" d="M204 1073q0 185 130 314.5t314 129.5q185 0 314.5 -129.5t129.5 -314.5q0 -184 -130 -314t-314 -130t-314 130t-130 314zM303 1073q0 -141 102 -243t243 -102t243.5 102t102.5 243q0 142 -102 244t-244 102q-141 0 -243 -102t-102 -244zM469 802v530h154q204 0 204 -138 q0 -97 -109 -155l124 -237h-113l-113 216h-48v-216h-99zM568 1092h43q105 0 105 93q0 74 -101 74h-47v-167z" />
<glyph unicode="&#xb4;" horiz-adv-x="1258" d="M395 1283l241 321h228l-321 -321h-148z" />
<glyph unicode="&#xb8;" horiz-adv-x="1258" d="M510 -330q46 -15 105 -15q103 0 103 74q0 96 -187 96l95 175h97l-60 -109q77 0 135.5 -47.5t58.5 -110.5q0 -69 -58.5 -117t-142.5 -48q-72 0 -146 21v81z" />
<glyph unicode="&#xbb;" horiz-adv-x="1073" d="M74 173l296 370l-296 370l99 74l394 -444l-394 -444zM469 173l296 370l-296 370l98 74l395 -444l-395 -444z" />
<glyph unicode="&#x2c6;" horiz-adv-x="1258" d="M279 1283l241 321h218l241 -321h-148l-203 202l-201 -202h-148z" />
<glyph unicode="&#x2da;" horiz-adv-x="1258" d="M402 1510q0 94 66 160.5t161 66.5q94 0 160.5 -66t66.5 -161t-66 -161t-161 -66t-161 66t-66 161zM488 1510q0 -58 41 -99.5t100 -41.5t100 41t41 100t-41.5 100t-99.5 41q-59 0 -100 -41t-41 -100z" />
<glyph unicode="&#x2dc;" horiz-adv-x="1258" d="M296 1283q11 234 185 234q73 0 135 -38l60 -37q56 -35 85 -35q69 0 78 110h123q-11 -234 -185 -234q-73 0 -135 39l-60 37q-56 34 -85 34q-69 0 -78 -110h-123z" />
<glyph unicode="&#x401;" horiz-adv-x="1110" d="M191 0v1480h827v-157h-617v-475h517v-155h-517v-536h660v-157h-870zM342 1604v173h173v-173h-173zM737 1604v173h173v-173h-173z" />
<glyph unicode="&#x402;" horiz-adv-x="1628" d="M12 1323v157h1246v-157h-518v-499q175 132 364 132q194 0 322 -130t128 -328q0 -218 -134.5 -364t-335.5 -146q-60 0 -110 12v150q30 -8 69 -8q121 0 205 97t84 237q0 130 -77.5 215.5t-196.5 85.5q-157 0 -318 -143v-634h-210v1323h-518z" />
<glyph unicode="&#x403;" horiz-adv-x="1043" d="M191 0v1480h828v-157h-618v-1323h-210zM401 1604l241 321h228l-321 -321h-148z" />
<glyph unicode="&#x404;" horiz-adv-x="1234" d="M105 745q0 352 188 562t502 210q161 0 334 -57v-168q-195 71 -336 71q-189 0 -313.5 -137t-150.5 -375h559v-154h-559q0 -240 137.5 -404t339.5 -164q169 0 342 85v-194q-175 -57 -349 -57q-326 0 -510 207.5t-184 574.5z" />
<glyph unicode="&#x405;" horiz-adv-x="1103" d="M100 28v208q250 -116 412 -116q123 0 198.5 65.5t75.5 170.5q0 87 -49.5 148t-182.5 136l-102 59q-189 108 -266.5 203.5t-77.5 221.5q0 172 124 282.5t316 110.5q171 0 361 -57v-192q-234 92 -349 92q-109 0 -180 -58t-71 -146q0 -74 52 -131t190 -136l106 -60 q192 -109 268 -206t76 -233q0 -193 -142 -310t-377 -117q-150 0 -382 65z" />
<glyph unicode="&#x406;" horiz-adv-x="590" d="M190 0v1480h210v-1480h-210z" />
<glyph unicode="&#x407;" horiz-adv-x="590" d="M11 1604v173h173v-173h-173zM190 0v1480h210v-1480h-210zM406 1604v173h173v-173h-173z" />
<glyph unicode="&#x408;" horiz-adv-x="637" d="M-183 -89q120 -39 214 -39q118 0 165.5 69t47.5 239v1300h210v-1293q0 -483 -457 -483q-70 0 -180 21v186z" />
<glyph unicode="&#x409;" horiz-adv-x="2011" d="M31 0v185q215 30 282 229q70 207 70 972v94h863v-635h114q175 0 255 -14.5t153 -60.5q169 -107 169 -320q0 -246 -193 -367q-131 -83 -439 -83h-269v1326h-444v-33q0 -674 -76 -916q-58 -184 -169 -270.5t-316 -106.5zM1246 154h75q216 0 300 62q106 78 106 221 q0 134 -89.5 194t-288.5 60h-103v-537z" />
<glyph unicode="&#x40a;" horiz-adv-x="1981" d="M191 0v1480h210v-624h605v624h210v-635h113q176 0 256 -14.5t152 -60.5q170 -108 170 -319q0 -247 -193 -368q-132 -83 -439 -83h-269v699h-605v-699h-210zM1216 154h75q216 0 300 62q106 78 106 221q0 134 -89.5 194t-288.5 60h-103v-537z" />
<glyph unicode="&#x40b;" horiz-adv-x="1561" d="M19 1323v157h1098v-157h-444v-488q164 140 383 140q198 0 317 -120q63 -63 85.5 -140t22.5 -225v-490h-210v485q0 172 -59 244.5t-200 72.5q-192 0 -339 -154v-648h-210v1323h-444z" />
<glyph unicode="&#x40c;" horiz-adv-x="1214" d="M191 0v1480h210v-639h10q83 0 125 40.5t146 217.5l63 108l52 92q59 101 119 141.5t150 40.5l26 -1v-154q-11 1 -16 1q-78 0 -162 -151l-39 -71l-31 -54q-76 -136 -117 -187t-104 -90q108 -36 168.5 -103.5t150.5 -251.5l51 -103q9 -19 56 -117q53 -113 103 -199h-222 l-16 31l-65 131l-84 172q-129 262 -262 351h-102v-685h-210zM475 1604l241 321h228l-321 -321h-148z" />
<glyph unicode="&#x40e;" horiz-adv-x="1314" d="M74 1480h235l397 -786l430 786h196l-608 -1112q-122 -225 -229 -296.5t-319 -71.5h-39v173h41q148 0 221.5 46.5t152.5 190.5l32 60zM363 1900h123q32 -148 210 -148t210 148h123q-15 -134 -106 -215t-227 -81t-226.5 80.5t-106.5 215.5z" />
<glyph unicode="&#x40f;" horiz-adv-x="1506" d="M191 0v1480h210v-1323h704v1323h210v-1480h-464v-321h-197v321h-463z" />
<glyph unicode="&#x410;" horiz-adv-x="1413" d="M17 0l587 1480h208l578 -1480h-227l-161 410h-627l-163 -410h-195zM436 566h505l-252 638z" />
<glyph unicode="&#x411;" horiz-adv-x="1191" d="M191 0v1480h827v-157h-617v-478h113q176 0 256 -14.5t152 -60.5q170 -108 170 -319q0 -247 -193 -368q-132 -83 -439 -83h-269zM401 154h74q216 0 301 62q106 78 106 221q0 134 -89.5 194t-288.5 60h-103v-537z" />
<glyph unicode="&#x412;" horiz-adv-x="1178" d="M191 0v1480h384q222 0 340.5 -84t118.5 -242q0 -128 -79 -228t-225 -155q363 -111 363 -401q0 -130 -80 -231q-61 -77 -147 -108t-239 -31h-436zM399 157h43q231 0 299 29q130 55 130 204q0 132 -118 219.5t-295 87.5h-59v-540zM399 830h67q169 0 261 72t92 205 q0 216 -338 216h-82v-493z" />
<glyph unicode="&#x413;" horiz-adv-x="1043" d="M191 0v1480h828v-157h-618v-1323h-210z" />
<glyph unicode="&#x414;" horiz-adv-x="1561" d="M74 185h117q165 264 230.5 521.5t65.5 636.5v137h808v-1295h204v-506h-204v321h-1017v-321h-204v506zM432 185h654v1141h-389v-24q0 -655 -265 -1117z" />
<glyph unicode="&#x415;" horiz-adv-x="1110" d="M191 0v1480h827v-157h-617v-475h517v-155h-517v-536h660v-157h-870z" />
<glyph unicode="&#x416;" horiz-adv-x="1673" d="M56 0l22 50q60 135 109 255l47 112q74 180 136 254t167 107q-55 32 -90 80.5t-101 184.5l-37 78q-63 129 -99 167t-95 38v154l21 1q103 0 172.5 -63.5t154.5 -234.5l31 -64l40 -81q60 -120 97.5 -156.5t106.5 -39.5v638h198v-638q70 8 110 46t94 150q27 54 40 81l31 64 q85 171 154.5 234.5t172.5 63.5l21 -1v-154q-59 0 -95 -38t-99 -167l-37 -78q-66 -136 -101 -184.5t-90 -80.5q105 -33 167 -107t136 -254l46 -112q50 -120 110 -255l22 -50h-216q-17 39 -59 148q-103 272 -177 408q-35 64 -63.5 89.5t-92.5 51.5h-74v-697h-198v697h-86 q-92 -46 -144 -141q-71 -130 -178 -408q-42 -111 -58 -148h-216z" />
<glyph unicode="&#x417;" horiz-adv-x="1107" d="M65 25v185q233 -86 402 -86q152 0 242.5 75.5t90.5 202.5q0 152 -119 231.5t-348 79.5h-31v148h29q205 0 318 74.5t113 210.5q0 216 -305 216q-159 0 -367 -77v170q191 62 379 62q243 0 376 -92.5t133 -262.5q0 -263 -322 -358q173 -28 269.5 -129.5t96.5 -253.5 q0 -195 -158 -326.5t-393 -131.5q-210 0 -406 62z" />
<glyph unicode="&#x418;" horiz-adv-x="1517" d="M191 0v1480h210v-1178l715 1178h210v-1480h-210v1178l-715 -1178h-210z" />
<glyph unicode="&#x419;" horiz-adv-x="1518" d="M191 0v1480h210v-1178l715 1178h210v-1480h-210v1178l-715 -1178h-210zM414 1900h123q32 -148 210 -148t210 148h123q-15 -134 -106 -215t-227 -81t-226.5 80.5t-106.5 215.5z" />
<glyph unicode="&#x41a;" horiz-adv-x="1214" d="M191 0v1480h210v-639h10q83 0 125 40.5t146 217.5l63 108l52 92q59 101 119 141.5t150 40.5l26 -1v-154q-11 1 -16 1q-78 0 -162 -151l-39 -71l-31 -54q-76 -136 -117 -187t-104 -90q108 -36 168.5 -103.5t150.5 -251.5l51 -103q9 -19 56 -117q53 -113 103 -199h-222 l-16 31l-65 131l-84 172q-129 262 -262 351h-102v-685h-210z" />
<glyph unicode="&#x41b;" horiz-adv-x="1437" d="M31 0v185q215 30 282 229q70 207 70 972v94h863v-1480h-210v1326h-444v-33q0 -674 -76 -916q-58 -184 -169 -270.5t-316 -106.5z" />
<glyph unicode="&#x41c;" horiz-adv-x="1764" d="M191 0v1480h289l412 -1145l422 1145h260v-1480h-196l-2 1204l-408 -1105h-199l-398 1108v-1207h-180z" />
<glyph unicode="&#x41d;" horiz-adv-x="1505" d="M191 0v1480h210v-624h704v624h210v-1480h-210v699h-704v-699h-210z" />
<glyph unicode="&#x41e;" horiz-adv-x="1591" d="M104 740q0 354 188.5 565.5t503.5 211.5t503.5 -211.5t188.5 -565.5t-188.5 -565.5t-503.5 -211.5t-503.5 211.5t-188.5 565.5zM327 742q0 -293 124 -457.5t345 -164.5t345 164.5t124 457.5q0 291 -124 454.5t-345 163.5t-345 -163.5t-124 -454.5z" />
<glyph unicode="&#x41f;" horiz-adv-x="1505" d="M191 0v1480h1124v-1480h-210v1323h-704v-1323h-210z" />
<glyph unicode="&#x420;" horiz-adv-x="1132" d="M191 0v1480h403q174 0 268.5 -28.5t154.5 -100.5q79 -95 79 -259q0 -236 -160 -370t-444 -134h-93v-588h-208zM399 747h85q187 0 289 86t102 244q0 132 -80.5 189t-266.5 57h-129v-576z" />
<glyph unicode="&#x421;" horiz-adv-x="1417" d="M104 739q0 371 191.5 574.5t540.5 203.5q198 0 465 -65v-197q-304 105 -469 105q-241 0 -373 -163t-132 -460q0 -284 141 -447t386 -163q209 0 449 129v-180q-219 -113 -478 -113q-345 0 -533 202t-188 574z" />
<glyph unicode="&#x422;" d="M18 1323v157h1260v-157h-525v-1323h-210v1323h-525z" />
<glyph unicode="&#x423;" horiz-adv-x="1314" d="M74 1480h235l397 -786l430 786h196l-608 -1112q-122 -225 -229 -296.5t-319 -71.5h-39v173h41q148 0 221.5 46.5t152.5 190.5l32 60z" />
<glyph unicode="&#x424;" horiz-adv-x="1419" d="M62 735q0 222 157.5 372t391.5 150v223h197v-223q234 0 391.5 -150t157.5 -372q0 -209 -157.5 -361t-374.5 -152h-17v-222h-197v222h-19q-215 0 -372.5 152.5t-157.5 360.5zM272 730q0 -155 95 -254.5t244 -99.5v728q-162 -11 -250.5 -108.5t-88.5 -265.5zM808 376 q149 0 244.5 99.5t95.5 254.5q0 168 -88.5 265.5t-251.5 108.5v-728z" />
<glyph unicode="&#x425;" horiz-adv-x="1282" d="M16 0l491 743l-467 737h248l356 -558l374 558h198l-473 -715l485 -765h-248l-376 587l-389 -587h-199z" />
<glyph unicode="&#x426;" horiz-adv-x="1574" d="M191 0v1480h210v-1295h704v1295h210v-1295h197v-506h-197v321h-1124z" />
<glyph unicode="&#x427;" horiz-adv-x="1289" d="M80 990v490h210v-484q0 -178 61.5 -248t219.5 -70q174 0 317 89v713h210v-1480h-210v596q-161 -90 -371 -90q-212 0 -330 120q-62 63 -84.5 140t-22.5 224z" />
<glyph unicode="&#x428;" horiz-adv-x="1949" d="M191 0v1480h210v-1295h469v1295h209v-1295h469v1295h210v-1480h-1567z" />
<glyph unicode="&#x429;" horiz-adv-x="2017" d="M191 0v1480h210v-1295h469v1295h209v-1295h469v1295h210v-1295h197v-506h-197v321h-1567z" />
<glyph unicode="&#x42a;" horiz-adv-x="1388" d="M19 1323v157h605v-635h113q176 0 255.5 -14.5t152.5 -60.5q169 -107 169 -320q0 -246 -193 -367q-131 -83 -438 -83h-269v1323h-395zM624 154h74q216 0 301 62q106 78 106 221q0 134 -89.5 194t-289.5 60h-102v-537z" />
<glyph unicode="&#x42b;" horiz-adv-x="1647" d="M191 0v1480h210v-635h113q176 0 256 -14.5t152 -60.5q170 -108 170 -319q0 -247 -193 -368q-132 -83 -439 -83h-269zM401 154h74q216 0 301 62q106 78 106 221q0 134 -89.5 194t-288.5 60h-103v-537zM1246 0v1480h210v-1480h-210z" />
<glyph unicode="&#x42c;" horiz-adv-x="1166" d="M191 0v1480h210v-635h113q176 0 256 -14.5t152 -60.5q170 -108 170 -319q0 -247 -193 -368q-132 -83 -439 -83h-269zM401 154h74q216 0 301 62q106 78 106 221q0 134 -89.5 194t-288.5 60h-103v-537z" />
<glyph unicode="&#x42d;" horiz-adv-x="1234" d="M86 20v193q195 -77 344 -77q209 0 333.5 147t141.5 414h-560v154h560q0 227 -127.5 369.5t-330.5 142.5q-164 0 -342 -89v167q162 76 363 76q307 0 466 -171q89 -95 142 -251.5t53 -325.5q0 -384 -225 -621q-175 -185 -473 -185q-152 0 -345 57z" />
<glyph unicode="&#x42e;" horiz-adv-x="1977" d="M191 0v1480h210v-661h234q23 333 183.5 515.5t430.5 182.5q286 0 451.5 -208.5t165.5 -568.5t-165.5 -568.5t-451.5 -208.5q-269 0 -432.5 186.5t-181.5 512.5h-234v-662h-210zM855 740q0 -292 104.5 -457.5t289.5 -165.5q186 0 290.5 165.5t104.5 457.5t-104.5 457.5 t-290.5 165.5q-185 0 -289.5 -165.5t-104.5 -457.5z" />
<glyph unicode="&#x42f;" horiz-adv-x="1270" d="M25 0q85 99 165 225l43 67l27 41l59 90q115 175 228 245q-155 31 -252.5 143t-97.5 259q0 193 143 317q62 54 148 73.5t255 19.5h336v-1480h-210v629h-134q-141 -141 -339 -467q-27 -45 -73 -120l-26 -42h-272zM419 1065q0 -140 95.5 -211t283.5 -71h71v543h-124 q-165 0 -236 -60q-90 -77 -90 -201z" />
<glyph unicode="&#x430;" horiz-adv-x="1131" d="M103 273q0 178 149.5 273.5t429.5 95.5h46v131q0 189 -197 189q-153 0 -334 -96v163q199 81 375 81q181 0 267 -82.5t86 -254.5v-492q0 -169 104 -169q13 0 38 4l14 -109q-67 -32 -148 -32q-138 0 -176 163q-177 -163 -341 -163q-135 0 -224 84.5t-89 213.5zM300 305 q0 -71 50 -120t122 -49q123 0 256 109v281l-63 2q-164 0 -264.5 -61t-100.5 -162z" />
<glyph unicode="&#x431;" horiz-adv-x="1221" d="M111 705q0 459 138.5 666.5t444.5 207.5h42q147 0 264 53v-159q-93 -42 -241 -42h-24q-218 0 -310.5 -126.5t-116.5 -457.5q152 239 397 239q186 0 299.5 -146.5t113.5 -387.5q0 -259 -140 -418t-368 -159q-499 0 -499 730zM309 676q0 -553 312 -553q132 0 209.5 113 t77.5 304q0 367 -257 367q-181 0 -341 -197z" />
<glyph unicode="&#x432;" horiz-adv-x="1075" d="M197 0v1086h378q165 0 254.5 -61.5t89.5 -174.5q0 -199 -208 -283q252 -81 252 -293q0 -129 -93 -201.5t-256 -72.5h-417zM393 148h82q167 0 224 29.5t57 114.5q0 91 -74.5 147.5t-195.5 56.5h-93v-348zM393 626h99q225 0 225 183q0 129 -213 129h-111v-312z" />
<glyph unicode="&#x433;" horiz-adv-x="1012" d="M197 0v1086h790v-173h-593v-913h-197z" />
<glyph unicode="&#x434;" horiz-adv-x="1376" d="M74 173h101q115 145 164.5 337t49.5 490v86h703v-913h197v-420h-197v247h-821v-247h-197v420zM409 173h485v765h-308v-24q0 -233 -42 -408.5t-135 -332.5z" />
<glyph unicode="&#x435;" horiz-adv-x="1141" d="M111 548q0 247 133.5 405t341.5 158q197 0 304.5 -140.5t107.5 -398.5l-1 -60h-685q43 -387 379 -387q123 0 302 66v-156q-198 -60 -339 -60q-241 0 -392 159.5t-151 413.5zM321 660h479q0 303 -226 303q-227 0 -253 -303z" />
<glyph unicode="&#x436;" horiz-adv-x="1490" d="M49 0q45 72 82 144q38 76 44 87l53 98l40 76q59 107 171 145q-79 46 -140 175l-20 42q-7 15 -23 53q-28 67 -50 89t-66 29v148h11q87 0 138 -47t111 -181l23 -53q49 -109 85 -148t88 -39l50 -1v469h198v-469l50 1q52 0 87.5 38.5t84.5 148.5l24 53q61 135 111 181.5 t138 46.5h10v-148q-44 -7 -65.5 -29t-49.5 -89q-16 -38 -23 -53l-20 -42q-61 -129 -141 -175q113 -38 172 -145l39 -76l54 -98q6 -11 44 -87q37 -72 82 -144h-213l-14 27l-46 88q-38 74 -63 117q-71 120 -74 126q-49 94 -96 123h-91v-481h-198v481h-91q-47 -29 -96 -123 q-3 -6 -74 -126q-25 -43 -64 -117l-45 -88l-15 -27h-212z" />
<glyph unicode="&#x437;" horiz-adv-x="984" d="M86 22v166q156 -60 321 -60q115 0 186.5 52.5t71.5 136.5q0 198 -316 198h-26v130h33q281 0 281 158q0 157 -252 157q-126 0 -280 -55v159q143 46 315 46q197 0 307.5 -70t110.5 -195q0 -157 -199 -263q233 -71 233 -266q0 -147 -134.5 -244t-337.5 -97q-132 0 -314 47z " />
<glyph unicode="&#x438;" horiz-adv-x="1283" d="M197 0v1086h185v-822l506 822h197v-1086h-185v822l-505 -822h-198z" />
<glyph unicode="&#x439;" horiz-adv-x="1283" d="M197 0v1086h185v-822l506 822h197v-1086h-185v822l-505 -822h-198zM347 1579h123q32 -148 210 -148t210 148h123q-15 -134 -106 -215t-227 -81t-226.5 80.5t-106.5 215.5z" />
<glyph unicode="&#x43a;" horiz-adv-x="1100" d="M197 0v1086h197v-475l18 1q72 4 104 27t69 94l34 66l22 46q73 152 129.5 196.5t179.5 44.5v-148q-59 0 -88 -27.5t-77 -127.5l-19 -40l-25 -55q-44 -91 -143 -142q81 -28 124 -74t114 -182l40 -76q67 -128 125 -214h-218q-31 61 -63 119l-54 95q-104 187 -173 249h-99 v-463h-197z" />
<glyph unicode="&#x43b;" horiz-adv-x="1203" d="M37 0v173q76 4 119.5 49t75.5 153q70 233 70 604v107h703v-1086h-197v938h-315v-19q0 -453 -110 -689q-108 -230 -346 -230z" />
<glyph unicode="&#x43c;" horiz-adv-x="1487" d="M197 0v1086h215l328 -849l320 849h229v-1086h-201l1 825l-282 -751h-190l-266 680v-754h-154z" />
<glyph unicode="&#x43d;" horiz-adv-x="1283" d="M197 0v1086h197v-441h494v441h197v-1086h-197v497h-494v-497h-197z" />
<glyph unicode="&#x43e;" horiz-adv-x="1258" d="M111 543q0 262 139.5 414.5t378.5 152.5t378.5 -152.5t139.5 -414.5t-139.5 -415t-378.5 -153t-378.5 153t-139.5 415zM321 543q0 -200 80.5 -310t227.5 -110t228 110t81 310t-81 309.5t-228 109.5t-227.5 -109.5t-80.5 -309.5z" />
<glyph unicode="&#x43f;" horiz-adv-x="1283" d="M197 0v1086h888v-1086h-197v913h-494v-913h-197z" />
<glyph unicode="&#x440;" horiz-adv-x="1289" d="M197 -395v1481h197v-204q121 228 363 228q196 0 308.5 -143t112.5 -391q0 -270 -127.5 -435.5t-335.5 -165.5q-193 0 -321 148v-518h-197zM394 259q152 -136 290 -136q136 0 210 113.5t74 319.5q0 382 -252 382q-165 0 -322 -179v-500z" />
<glyph unicode="&#x441;" horiz-adv-x="1049" d="M111 549q0 265 143.5 413t400.5 148q127 0 284 -35v-165q-167 49 -272 49q-152 0 -243 -113.5t-91 -302.5q0 -183 94 -296t246 -113q135 0 278 69v-170q-191 -58 -330 -58q-220 0 -365 163t-145 411z" />
<glyph unicode="&#x442;" horiz-adv-x="1012" d="M12 913v173h987v-173h-395v-913h-197v913h-395z" />
<glyph unicode="&#x443;" horiz-adv-x="1077" d="M12 1086h190l347 -787l311 787h198l-417 -1061q-107 -271 -202 -345.5t-335 -74.5h-23v173h28q151 0 210.5 45.5t126.5 211.5l12 32z" />
<glyph unicode="&#x444;" horiz-adv-x="1653" d="M123 535q0 245 111.5 410.5t277.5 165.5q143 0 216 -99v468h197v-468q73 99 215 99q166 0 277.5 -165.5t111.5 -410.5q0 -239 -111.5 -399.5t-277.5 -160.5q-122 0 -215 99v-469h-197v469q-94 -99 -215 -99q-167 0 -278.5 160.5t-111.5 399.5zM320 539q0 -181 71 -292 t186 -111q65 0 151 46v720q-82 48 -155 48q-113 0 -183 -114t-70 -297zM925 182q86 -46 151 -46q115 0 185.5 111t70.5 292q0 183 -70 297t-182 114q-74 0 -155 -48v-720z" />
<glyph unicode="&#x445;" horiz-adv-x="1256" d="M88 0l413 561l-401 525h234l317 -418l287 418h192l-376 -551l409 -535h-234l-327 430l-316 -430h-198z" />
<glyph unicode="&#x446;" horiz-adv-x="1369" d="M197 0v1086h197v-913h494v913h197v-913h198v-420h-198v247h-888z" />
<glyph unicode="&#x447;" horiz-adv-x="1073" d="M80 840v246h197v-284q0 -163 43 -222.5t160 -59.5q110 0 198 50v516h198v-1086h-198v425q-117 -49 -236 -49q-204 0 -283 101.5t-79 362.5z" />
<glyph unicode="&#x448;" horiz-adv-x="1727" d="M197 0v1086h197v-913h371v913h197v-913h370v913h197v-1086h-1332z" />
<glyph unicode="&#x449;" horiz-adv-x="1814" d="M197 0v1086h197v-913h371v913h197v-913h370v913h197v-913h198v-420h-198v247h-1332z" />
<glyph unicode="&#x44a;" horiz-adv-x="1148" d="M19 938v148h493v-438h95q449 0 449 -316q0 -332 -478 -332h-263v938h-296zM512 148h79q255 0 255 183q0 92 -57.5 130.5t-194.5 38.5h-82v-352z" />
<glyph unicode="&#x44b;" horiz-adv-x="1481" d="M197 0v1086h197v-438h95q449 0 449 -316q0 -332 -478 -332h-263zM394 148h79q255 0 255 183q0 92 -57.5 130.5t-194.5 38.5h-82v-352zM1085 0v1086h198v-1086h-198z" />
<glyph unicode="&#x44c;" horiz-adv-x="1037" d="M204 0v1086h197v-438h95q449 0 449 -316q0 -332 -478 -332h-263zM401 148h79q255 0 255 183q0 92 -57.5 130.5t-194.5 38.5h-82v-352z" />
<glyph unicode="&#x44d;" horiz-adv-x="1042" d="M86 28v177q143 -69 312 -69q274 0 328 345h-381v148h381q0 155 -84.5 244t-231.5 89q-128 0 -287 -76v168q146 57 312 57q235 0 365.5 -144t130.5 -403q0 -267 -147 -428t-390 -161q-148 0 -308 53z" />
<glyph unicode="&#x44e;" horiz-adv-x="1667" d="M197 0v1086h197v-469h203q19 230 146.5 361.5t330.5 131.5q220 0 351 -154t131 -413q0 -260 -131 -414t-351 -154q-204 0 -330 130.5t-147 363.5h-203v-469h-197zM803 543q0 -202 70.5 -311t200.5 -109q131 0 201.5 109.5t70.5 310.5t-70.5 310t-201.5 109 q-130 0 -200.5 -109t-70.5 -310z" />
<glyph unicode="&#x44f;" horiz-adv-x="1045" d="M37 0q70 106 126 212l26 49q94 179 184 231q-102 37 -162.5 117t-60.5 178q0 177 167 257q85 42 313 42h218v-1086h-198v438h-112q-70 -69 -146 -200l-63 -110q-41 -73 -71 -128h-221zM360 766q0 -180 246 -180h44v352h-55q-235 0 -235 -172z" />
<glyph unicode="&#x451;" horiz-adv-x="1141" d="M111 548q0 247 133.5 405t341.5 158q197 0 304.5 -140.5t107.5 -398.5l-1 -60h-685q43 -387 379 -387q123 0 302 66v-156q-198 -60 -339 -60q-241 0 -392 159.5t-151 413.5zM308 1283v173h173v-173h-173zM321 660h479q0 303 -226 303q-227 0 -253 -303zM703 1283v173h173 v-173h-173z" />
<glyph unicode="&#x452;" horiz-adv-x="1271" d="M0 1135v124h197v320h197v-320h374v-124h-374v-425q156 228 382 228q142 0 225.5 -89.5t83.5 -241.5v-699q0 -154 -84.5 -241t-236.5 -87q-73 0 -148 21v154q63 -27 126 -27q79 0 112.5 50t33.5 167v598q0 122 -35.5 173.5t-117.5 51.5q-181 0 -341 -237v-531h-197v1135 h-197z" />
<glyph unicode="&#x453;" horiz-adv-x="1012" d="M197 0v1086h790v-173h-593v-913h-197zM394 1283l241 321h228l-321 -321h-148z" />
<glyph unicode="&#x454;" horiz-adv-x="1042" d="M111 545q0 270 142 418t403 148q139 0 288 -37v-161q-181 49 -305 49q-139 0 -223.5 -84t-96.5 -236h378v-149h-378q13 -192 97.5 -281t254.5 -89q135 0 285 66v-153q-165 -61 -319 -61q-241 0 -383.5 154.5t-142.5 415.5z" />
<glyph unicode="&#x455;" horiz-adv-x="1044" d="M157 38v181q193 -96 336 -96q85 0 141 46t56 115q0 101 -157 167l-115 49q-255 106 -255 305q0 142 100.5 223.5t275.5 81.5q91 0 225 -25l41 -8v-164q-165 49 -263 49q-86 0 -137.5 -37.5t-51.5 -100.5q0 -89 144 -150l95 -40q161 -68 228 -143.5t67 -188.5 q0 -143 -113 -235t-289 -92q-135 0 -328 63z" />
<glyph unicode="&#x456;" horiz-adv-x="592" d="M197 0v1086h197v-1086h-197zM197 1283v197h197v-197h-197z" />
<glyph unicode="&#x457;" horiz-adv-x="592" d="M12 1283v173h173v-173h-173zM197 0v1086h197v-1086h-197zM407 1283v173h173v-173h-173z" />
<glyph unicode="&#x458;" horiz-adv-x="623" d="M-153 -213q138 -58 210 -58q82 0 127 44q30 30 37.5 68t7.5 159v1086h198v-1086q0 -419 -354 -419q-105 0 -226 50v156zM229 1283v197h198v-197h-198z" />
<glyph unicode="&#x459;" horiz-adv-x="1641" d="M37 0v173q76 4 119.5 49t75.5 153q70 233 70 604v107h703v-438h95q449 0 449 -316q0 -332 -478 -332h-263v938h-315v-19q0 -453 -110 -689q-108 -230 -346 -230zM1005 148h79q255 0 255 183q0 92 -57.5 130.5t-194.5 38.5h-82v-352z" />
<glyph unicode="&#x45a;" horiz-adv-x="1721" d="M197 0v1086h198v-438h493v438h197v-438h95q448 0 448 -316q0 -332 -478 -332h-262v500h-493v-500h-198zM1085 148h79q254 0 254 183q0 92 -57 130.5t-194 38.5h-82v-352z" />
<glyph unicode="&#x45b;" horiz-adv-x="1271" d="M0 1135v124h197v295h197v-295h374v-124h-374v-425q156 228 382 228q142 0 225.5 -89.5t83.5 -240.5v-608h-197v543q0 122 -35.5 173.5t-117.5 51.5q-181 0 -341 -237v-531h-197v1135h-197z" />
<glyph unicode="&#x45c;" horiz-adv-x="1100" d="M197 0v1086h197v-475l18 1q72 4 104 27t69 94l34 66l22 46q73 152 129.5 196.5t179.5 44.5v-148q-59 0 -88 -27.5t-77 -127.5l-19 -40l-25 -55q-44 -91 -143 -142q81 -28 124 -74t114 -182l40 -76q67 -128 125 -214h-218q-31 61 -63 119l-54 95q-104 187 -173 249h-99 v-463h-197zM419 1283l241 321h228l-321 -321h-148z" />
<glyph unicode="&#x45e;" horiz-adv-x="1077" d="M12 1086h190l347 -787l311 787h198l-417 -1061q-107 -271 -202 -345.5t-335 -74.5h-23v173h28q151 0 210.5 45.5t126.5 211.5l12 32zM198 1579h123q32 -148 210 -148t210 148h123q-15 -134 -106 -215t-227 -81t-226.5 80.5t-106.5 215.5z" />
<glyph unicode="&#x45f;" horiz-adv-x="1283" d="M197 0v1086h197v-913h494v913h197v-1086h-345v-247h-198v247h-345z" />
<glyph unicode="&#x462;" horiz-adv-x="1345" d="M0 1129v154h370v197h210v-197h395v-154h-395v-284h113q176 0 256 -14.5t152 -60.5q170 -108 170 -319q0 -247 -193 -368q-132 -83 -439 -83h-269v1129h-370zM580 154h75q216 0 300 62q106 78 106 221q0 134 -89.5 194t-288.5 60h-103v-537z" />
<glyph unicode="&#x463;" horiz-adv-x="1129" d="M25 962v124h271v493h197v-493h321v-124h-321v-314h95q449 0 449 -316q0 -332 -478 -332h-263v962h-271zM493 148h79q255 0 255 180q0 165 -252 165h-82v-345z" />
<glyph unicode="&#x46a;" horiz-adv-x="1649" d="M56 0l22 50q60 135 109 255l47 112q82 201 156.5 277t205.5 95l-456 537v154h1370v-154l-457 -537q132 -19 206 -95t157 -277l46 -112q49 -120 109 -255l22 -50h-215q-17 38 -59 148q-105 276 -178 408q-52 95 -144 141h-74v-697h-197v697h-74q-92 -46 -144 -141 q-71 -130 -178 -408q-42 -111 -58 -148h-216zM343 1326l439 -518h85l440 518h-964z" />
<glyph unicode="&#x46b;" horiz-adv-x="1436" d="M51 0q45 72 82 144q38 76 44 87l53 98l40 76q59 107 171 145l64 15l-373 373v148h1169v-148l-373 -373q173 -27 246 -160l40 -76l54 -98q6 -11 44 -87q37 -72 82 -144h-213l-14 27l-46 88q-38 74 -63 117q-71 120 -74 126q-49 94 -96 123h-67v-481h-197v481h-67 q-47 -29 -96 -123q-3 -6 -74 -126q-25 -43 -64 -117l-45 -88l-15 -27h-212zM385 938l345 -345h25l344 345h-714z" />
<glyph unicode="&#x490;" horiz-adv-x="1043" d="M191 0v1480h630v297h198v-454h-618v-1323h-210z" />
<glyph unicode="&#x491;" horiz-adv-x="1012" d="M197 0v1086h592v246h198v-419h-593v-913h-197z" />
<glyph unicode="&#x492;" horiz-adv-x="1154" d="M25 672v154h222v654h827v-157h-617v-497h370v-154h-370v-672h-210v672h-222z" />
<glyph unicode="&#x493;" horiz-adv-x="1012" d="M49 457v123h148v506h790v-173h-593v-333h346v-123h-346v-457h-197v457h-148z" />
<glyph unicode="&#x494;" horiz-adv-x="1283" d="M191 0v1480h740v-157h-530v-522q166 112 338 112q212 0 341 -151.5t129 -401.5q0 -282 -154.5 -469t-387.5 -187q-45 0 -94 16v159q52 -21 99 -21q140 0 227.5 126.5t87.5 329.5q0 200 -75 313t-207 113q-143 0 -304 -130v-610h-210z" />
<glyph unicode="&#x495;" horiz-adv-x="1117" d="M197 0v1086h672v-148h-475v-345q132 80 253 80q164 0 267.5 -130t103.5 -336q0 -223 -119 -363t-308 -140q-25 0 -61 4v146l20 -1q14 -1 25 -1q101 0 167 98t66 249q0 133 -56 214t-147 81q-95 0 -211 -75v-419h-197z" />
<glyph unicode="&#x496;" horiz-adv-x="1788" d="M56 0l22 50q60 135 109 255l47 112q74 180 136 254t167 107q-55 32 -90 80.5t-101 184.5l-37 78q-63 129 -99 167t-95 38v154l21 1q103 0 172.5 -63.5t154.5 -234.5l31 -64l40 -81q60 -120 97.5 -156.5t106.5 -39.5v638h198v-638q70 8 110 46t94 150q27 54 40 81l31 64 q85 171 154.5 234.5t172.5 63.5l21 -1v-154q-59 0 -95 -38t-99 -167l-37 -78q-66 -136 -101 -184.5t-90 -80.5q105 -33 167 -107t136 -254l46 -112q40 -97 47 -113l8 -19h198v-469h-198v296h-139q-17 38 -59 148q-105 276 -177 408q-52 95 -144 141h-86v-697h-198v697h-86 q-92 -46 -144 -141q-71 -130 -178 -408q-42 -111 -58 -148h-216z" />
<glyph unicode="&#x497;" horiz-adv-x="1604" d="M49 0q45 72 82 144q38 76 44 87l53 98l40 76q59 107 171 145q-79 46 -140 175l-20 42q-7 15 -23 53q-28 67 -50 89t-66 29v148h11q87 0 138 -47t111 -181l23 -53q49 -109 85 -148t88 -39l50 -1v469h198v-469l50 1q52 0 87.5 38.5t84.5 148.5l24 53q61 135 111 181.5 t138 46.5h10v-148q-44 -7 -65.5 -29t-49.5 -89q-16 -38 -23 -53l-20 -42q-61 -129 -141 -175q113 -38 172 -145l39 -76l54 -98l30 -58h197v-420h-197v247h-117l-14 27l-46 88q-38 74 -63 117q-71 120 -74 126q-49 94 -96 123h-91v-481h-198v481h-91q-47 -29 -96 -123 q-3 -6 -74 -126q-25 -43 -64 -117l-45 -88l-15 -27h-212z" />
<glyph unicode="&#x498;" horiz-adv-x="1107" d="M65 25v185q233 -86 402 -86q152 0 242.5 75.5t90.5 202.5q0 152 -119 231.5t-348 79.5h-31v148h29q205 0 318 74.5t113 210.5q0 216 -305 216q-159 0 -367 -77v170q191 62 379 62q243 0 376 -92.5t133 -262.5q0 -263 -322 -358q173 -28 269.5 -129.5t96.5 -253.5 q0 -195 -158 -326.5t-393 -131.5q-210 0 -406 62zM311 -330q46 -15 105 -15q103 0 103 74q0 96 -187 96l95 175h97l-60 -109q77 0 135.5 -47.5t58.5 -110.5q0 -69 -58.5 -117t-142.5 -48q-72 0 -146 21v81z" />
<glyph unicode="&#x499;" horiz-adv-x="984" d="M86 22v166q156 -60 321 -60q115 0 186.5 52.5t71.5 136.5q0 198 -316 198h-26v130h33q281 0 281 158q0 157 -252 157q-126 0 -280 -55v159q143 46 315 46q197 0 307.5 -70t110.5 -195q0 -157 -199 -263q233 -71 233 -266q0 -147 -134.5 -244t-337.5 -97q-132 0 -314 47z M259 -330q46 -15 105 -15q103 0 103 74q0 96 -187 96l95 175h97l-60 -109q77 0 135.5 -47.5t58.5 -110.5q0 -69 -58.5 -117t-142.5 -48q-72 0 -146 21v81z" />
<glyph unicode="&#x49a;" horiz-adv-x="1308" d="M191 0v1480h210v-639h10q83 0 125 40.5t146 217.5l63 108l52 92q59 101 119 141.5t150 40.5l26 -1v-154q-11 1 -16 1q-78 0 -162 -151l-39 -71l-31 -54q-76 -136 -117 -187t-104 -90q108 -36 168.5 -103.5t150.5 -251.5l51 -103l56 -117l12 -26h198v-494h-198v321h-131 l-16 31l-65 131l-84 172q-129 262 -262 351h-102v-685h-210z" />
<glyph unicode="&#x49b;" horiz-adv-x="1160" d="M197 0v1086h197v-476l19 1q72 3 102 24.5t71 97.5l35 65l24 52q63 135 123 185.5t158 50.5h24v-148q-56 0 -91 -32.5t-74 -122.5l-17 -39q-40 -91 -71 -128t-97 -70q93 -40 126.5 -76t112.5 -183l61 -114h198v-420h-198v247h-115q-23 44 -59 107q-36 64 -59 107 q-95 173 -174 249h-99v-463h-197z" />
<glyph unicode="&#x49c;" horiz-adv-x="1485" d="M191 0v1480h210v-639h148v297h123v-297h8q64 0 107 45t142 213l63 108l52 92q59 101 118.5 141.5t150.5 40.5l25 -1v-154q-10 1 -16 1q-77 0 -161 -151l-39 -71l-31 -54q-76 -136 -117 -187t-104 -90q107 -36 168 -103.5t151 -251.5l51 -103q9 -19 55 -117 q54 -113 103 -199h-222l-15 31l-65 131l-84 172q-129 262 -263 351h-77v-296h-123v296h-148v-685h-210z" />
<glyph unicode="&#x49d;" horiz-adv-x="1366" d="M197 0v1086h197v-475h149v222h123v-222h7q67 0 104.5 25.5t73.5 96.5l34 66l22 46q73 152 130 196.5t179 44.5v-148q-58 0 -87.5 -27.5t-77.5 -127.5l-19 -40l-25 -55q-44 -91 -143 -142q81 -28 124 -74t114 -182l40 -76q68 -128 125 -214h-218q-31 61 -63 119l-53 95 q-105 187 -174 249h-93v-222h-123v222h-149v-463h-197z" />
<glyph unicode="&#x49e;" horiz-adv-x="1245" d="M19 1135v148h204v197h209v-197h204v-148h-204v-294h11q82 0 124.5 40.5t146.5 217.5l63 108l52 92q58 101 118 141.5t151 40.5l25 -1v-154q-10 1 -16 1q-77 0 -161 -151l-39 -71l-31 -54q-76 -136 -117 -187t-104 -90q107 -36 168 -103.5t151 -251.5l50 -103 q10 -19 56 -117q54 -113 103 -199h-222l-15 31l-66 131l-83 172q-129 262 -263 351h-102v-685h-209v1135h-204z" />
<glyph unicode="&#x49f;" horiz-adv-x="1100" d="M0 1209v123h197v247h197v-247h260v-123h-260v-598l18 1q72 4 104 27t69 94l34 66l22 46q73 152 129.5 196.5t179.5 44.5v-148q-59 0 -88 -27.5t-77 -127.5l-19 -40l-25 -55q-44 -91 -143 -142q81 -28 124 -74t114 -182l40 -76q67 -128 125 -214h-218q-31 61 -63 119 l-54 95q-104 187 -173 249h-99v-463h-197v1209h-197z" />
<glyph unicode="&#x4a0;" horiz-adv-x="1417" d="M0 1323v157h605v-639h10q82 0 124.5 40.5t146.5 217.5l63 108l52 92q59 101 118.5 141.5t150.5 40.5l25 -1v-154q-10 1 -16 1q-76 0 -161 -151l-39 -71l-31 -54q-74 -133 -116.5 -186t-104.5 -91q107 -36 168.5 -104t150.5 -251l51 -103q10 -21 55 -117q55 -115 104 -199 h-223l-15 31l-65 131l-84 172q-129 262 -263 351h-101v-685h-210v1323h-395z" />
<glyph unicode="&#x4a1;" horiz-adv-x="1211" d="M12 938v148h493v-476l18 1q73 5 104.5 27.5t68.5 94.5l34 66l22 46q73 152 130 196.5t179 44.5v-146q-57 0 -93.5 -34.5t-73.5 -122.5l-17 -40q-59 -141 -168 -197q82 -28 124 -73.5t114 -182.5l40 -76q70 -133 125 -214h-218q-28 57 -63 119l-53 95q-96 171 -174 249 h-99v-463h-197v938h-296z" />
<glyph unicode="&#x4a2;" horiz-adv-x="1574" d="M191 0v1480h210v-624h704v624h210v-1326h197v-475h-197v321h-210v699h-704v-699h-210z" />
<glyph unicode="&#x4a3;" horiz-adv-x="1352" d="M197 0v1086h198v-441h487v441h198v-913h197v-420h-197v247h-198v497h-487v-497h-198z" />
<glyph unicode="&#x4a4;" horiz-adv-x="1734" d="M191 0v1480h210v-624h704v624h604v-157h-394v-1323h-210v699h-704v-699h-210z" />
<glyph unicode="&#x4a5;" horiz-adv-x="1401" d="M197 0v1086h198v-441h487v441h494v-148h-296v-938h-198v497h-487v-497h-198z" />
<glyph unicode="&#x4a6;" horiz-adv-x="2098" d="M191 0v1480h1025v-157v-522q166 112 338 112q212 0 341 -151.5t129 -401.5q0 -282 -154.5 -469t-387.5 -187q-45 0 -93 16v159q51 -21 98 -21q140 0 227.5 126.5t87.5 329.5q0 200 -75 313t-207 113q-143 0 -304 -130v-610h-210v1323h-605v-1323h-210z" />
<glyph unicode="&#x4a7;" horiz-adv-x="1808" d="M197 0v1086h888v-493q133 80 253 80q164 0 267.5 -130t103.5 -336q0 -223 -119 -363t-308 -140q-25 0 -61 4v146l20 -1q14 -1 25 -1q101 0 167 98t66 249q0 133 -56 214t-147 81q-95 0 -211 -75v-419h-197v913h-494v-913h-197z" />
<glyph unicode="&#x4a8;" horiz-adv-x="1585" d="M111 740q0 353 188 565t500 212q402 0 557 -418q131 -153 131 -380q0 -179 -91.5 -360t-237.5 -292q159 -137 390 -153v-157q-187 10 -300.5 60.5t-231.5 176.5q-112 -31 -211 -31q-317 0 -505.5 211.5t-188.5 565.5zM334 742q0 -293 124 -457.5t345 -164.5q53 0 100 16 q-82 97 -138 260t-56 305q0 226 112.5 365t293.5 139q-99 155 -297 155q-233 0 -358.5 -160.5t-125.5 -457.5zM894 695q0 -134 46.5 -276t116.5 -225q220 173 220 530q0 150 -49 237.5t-132 87.5q-88 0 -145 -99.5t-57 -254.5z" />
<glyph unicode="&#x4a9;" horiz-adv-x="1271" d="M111 543q0 259 138.5 413t371.5 154q154 0 272.5 -80t160.5 -212q100 -90 100 -266q0 -149 -68.5 -284t-179.5 -207q161 -172 340 -172v-148q-290 28 -481 254q-76 -20 -148 -20q-229 0 -367.5 155t-138.5 413zM321 543q0 -420 310 -420q14 0 47 2q-111 203 -111 386 q0 148 77.5 250t189.5 102h23q-79 99 -221 99q-315 0 -315 -419zM740 462q0 -162 89 -298q140 123 140 363q0 189 -105 189q-124 0 -124 -254z" />
<glyph unicode="&#x4aa;" horiz-adv-x="1417" d="M104 739q0 371 191.5 574.5t540.5 203.5q198 0 465 -65v-197q-304 105 -469 105q-241 0 -373 -163t-132 -460q0 -284 141 -447t386 -163q209 0 449 129v-180q-219 -113 -478 -113q-345 0 -533 202t-188 574zM657 -330q46 -15 105 -15q103 0 103 74q0 96 -187 96l95 175 h97l-60 -109q77 0 135.5 -47.5t58.5 -110.5q0 -69 -58.5 -117t-142.5 -48q-72 0 -146 21v81z" />
<glyph unicode="&#x4ab;" horiz-adv-x="1049" d="M111 549q0 265 143.5 413t400.5 148q127 0 284 -35v-165q-167 49 -272 49q-152 0 -243 -113.5t-91 -302.5q0 -183 94 -296t246 -113q135 0 278 69v-170q-191 -58 -330 -58q-220 0 -365 163t-145 411zM482 -330q46 -15 105 -15q103 0 103 74q0 96 -187 96l95 175h97 l-60 -109q77 0 135.5 -47.5t58.5 -110.5q0 -69 -58.5 -117t-142.5 -48q-72 0 -146 21v81z" />
<glyph unicode="&#x4ac;" d="M18 1323v157h1260v-157h-525v-1150h197v-494h-197v321h-210v1323h-525z" />
<glyph unicode="&#x4ad;" horiz-adv-x="1012" d="M12 913v173h987v-173h-395v-740h197v-420h-197v247h-197v913h-395z" />
<glyph unicode="&#x4ae;" horiz-adv-x="1276" d="M17 1480h240l384 -668l414 668h195l-529 -858v-622h-210v618z" />
<glyph unicode="&#x4af;" horiz-adv-x="994" d="M12 1086h223l279 -466l293 466h174l-394 -630v-456h-197v456z" />
<glyph unicode="&#x4b0;" horiz-adv-x="1276" d="M17 1480h240l384 -668l414 668h195l-529 -858v-159h370v-148h-370v-315h-210v315h-370v148h370v155z" />
<glyph unicode="&#x4b1;" horiz-adv-x="994" d="M12 1086h223l279 -466l293 466h174l-394 -630v-104h284v-124h-284v-228h-197v228h-284v124h284v104z" />
<glyph unicode="&#x4b2;" horiz-adv-x="1357" d="M16 0l491 743l-467 737h248l356 -558l374 558h198l-473 -715l368 -580h197v-506h-197v321h-131l-376 587l-389 -587h-199z" />
<glyph unicode="&#x4b3;" horiz-adv-x="1291" d="M88 0l413 561l-401 525h234l317 -418l287 418h192l-376 -551l277 -362h197v-420h-197v247h-102l-327 430l-316 -430h-198z" />
<glyph unicode="&#x4b4;" horiz-adv-x="1790" d="M12 1323v157h950v-157h-345v-1138h704v1295h209v-1295h198v-506h-198v321h-1123v1323h-395z" />
<glyph unicode="&#x4b5;" horiz-adv-x="1419" d="M12 938v148h691v-148h-247v-765h494v913h197v-913h197v-420h-197v247h-888v938h-247z" />
<glyph unicode="&#x4b6;" horiz-adv-x="1357" d="M80 990v490h210v-484q0 -172 59 -244.5t200 -72.5q193 0 339 153v648h210v-1326h197v-475h-197v321h-210v645q-163 -139 -382 -139q-199 0 -318 120q-63 63 -85.5 140t-22.5 224z" />
<glyph unicode="&#x4b7;" horiz-adv-x="1147" d="M80 840v246h197v-284q0 -163 38 -212q49 -66 144 -66q120 0 219 87v475h198v-913h197v-420h-197v247h-198v456q-119 -80 -262 -80q-174 0 -264 113q-72 90 -72 351z" />
<glyph unicode="&#x4b8;" horiz-adv-x="1289" d="M80 990v490h210v-484q0 -166 48 -232.5t180 -83.5v331h123v-320q150 39 247 141v648h210v-1480h-210v645q-97 -83 -247 -122v-289h-123v272h-14q-196 0 -316 120q-63 63 -85.5 139.5t-22.5 224.5z" />
<glyph unicode="&#x4b9;" horiz-adv-x="1073" d="M80 840v246h197v-284q0 -147 26.5 -199t112.5 -74v211h124v-204q82 26 138 75v475h198v-1086h-198v456q-63 -42 -138 -63v-245h-124v228q-122 0 -213 66q-72 52 -97.5 134t-25.5 264z" />
<glyph unicode="&#x4ba;" horiz-adv-x="1289" d="M191 0v1480h210v-645q164 140 383 140q198 0 317 -120q62 -63 85 -140t23 -225v-490h-210v485q0 171 -59.5 244t-199.5 73q-193 0 -339 -154v-648h-210z" />
<glyph unicode="&#x4bb;" horiz-adv-x="1073" d="M197 0v1086h197v-457q121 81 263 81q173 0 264 -114q72 -90 72 -350v-246h-198v284q0 163 -37 212q-49 66 -144 66q-121 0 -220 -88v-474h-197z" />
<glyph unicode="&#x4bc;" horiz-adv-x="1757" d="M48 1045q0 66 21 146h163q-30 -68 -30 -146q0 -90 54 -126.5t187 -36.5h17q39 297 205 466t417 169q540 0 540 -708l-2 -81h-958q0 -256 141.5 -424.5t356.5 -168.5q222 0 450 110v-188q-212 -94 -444 -94q-331 0 -523 205.5t-192 559.5h-12q-391 0 -391 317zM677 882 h720v18q0 463 -322 463q-155 0 -262 -129.5t-136 -351.5z" />
<glyph unicode="&#x4bd;" horiz-adv-x="1474" d="M25 814q0 75 19 158h150q-28 -65 -28 -141q0 -98 52.5 -134.5t193.5 -36.5h41q36 213 158.5 332t306.5 119q197 0 304.5 -140.5t107.5 -398.5l-1 -60h-685q43 -387 379 -387q123 0 302 66v-156q-198 -60 -339 -60q-232 0 -378.5 145t-163.5 392h-36q-383 0 -383 302z M653 660h479q0 303 -226 303q-227 0 -253 -303z" />
<glyph unicode="&#x4be;" horiz-adv-x="1757" d="M48 1045q0 66 21 146h163q-30 -68 -30 -146q0 -90 54 -126.5t187 -36.5h17q39 297 205 466t417 169q540 0 540 -708l-2 -81h-958q0 -256 141.5 -424.5t356.5 -168.5q222 0 450 110v-188q-212 -94 -444 -94q-331 0 -523 205.5t-192 559.5h-12q-391 0 -391 317zM677 882 h720v18q0 463 -322 463q-155 0 -262 -129.5t-136 -351.5zM969 -211q0 125 158 211h107q-128 -77 -128 -178q0 -97 113 -97q57 0 92 15v-81q-60 -29 -138 -29q-92 0 -148 44t-56 115z" />
<glyph unicode="&#x4bf;" horiz-adv-x="1474" d="M25 814q0 75 19 158h150q-28 -65 -28 -141q0 -98 52.5 -134.5t193.5 -36.5h41q36 213 158.5 332t306.5 119q197 0 304.5 -140.5t107.5 -398.5l-1 -60h-685q43 -387 379 -387q123 0 302 66v-156q-198 -60 -339 -60q-232 0 -378.5 145t-163.5 392h-36q-383 0 -383 302z M653 660h479q0 303 -226 303q-227 0 -253 -303zM763 -211q0 125 158 211h107q-128 -77 -128 -178q0 -97 113 -97q57 0 92 15v-81q-60 -29 -138 -29q-92 0 -148 44t-56 115z" />
<glyph unicode="&#x4c0;" horiz-adv-x="590" d="M190 0v1480h210v-1480h-210z" />
<glyph unicode="&#x4c1;" horiz-adv-x="1673" d="M56 0l22 50q60 135 109 255l47 112q74 180 136 254t167 107q-55 32 -90 80.5t-101 184.5l-37 78q-63 129 -99 167t-95 38v154l21 1q103 0 172.5 -63.5t154.5 -234.5l31 -64l40 -81q60 -120 97.5 -156.5t106.5 -39.5v638h198v-638q70 8 110 46t94 150q27 54 40 81l31 64 q85 171 154.5 234.5t172.5 63.5l21 -1v-154q-59 0 -95 -38t-99 -167l-37 -78q-66 -136 -101 -184.5t-90 -80.5q105 -33 167 -107t136 -254l46 -112q50 -120 110 -255l22 -50h-216q-17 39 -59 148q-103 272 -177 408q-35 64 -63.5 89.5t-92.5 51.5h-74v-697h-198v697h-86 q-92 -46 -144 -141q-71 -130 -178 -408q-42 -111 -58 -148h-216zM504 1900h123q32 -148 210 -148t210 148h123q-15 -134 -106 -215t-227 -81t-226.5 80.5t-106.5 215.5z" />
<glyph unicode="&#x4c2;" horiz-adv-x="1490" d="M49 0q45 72 82 144q38 76 44 87l53 98l40 76q59 107 171 145q-79 46 -140 175l-20 42q-7 15 -23 53q-28 67 -50 89t-66 29v148h11q87 0 138 -47t111 -181l23 -53q49 -109 85 -148t88 -39l50 -1v469h198v-469l50 1q52 0 87.5 38.5t84.5 148.5l24 53q61 135 111 181.5 t138 46.5h10v-148q-44 -7 -65.5 -29t-49.5 -89q-16 -38 -23 -53l-20 -42q-61 -129 -141 -175q113 -38 172 -145l39 -76l54 -98q6 -11 44 -87q37 -72 82 -144h-213l-14 27l-46 88q-38 74 -63 117q-71 120 -74 126q-49 94 -96 123h-91v-481h-198v481h-91q-47 -29 -96 -123 q-3 -6 -74 -126q-25 -43 -64 -117l-45 -88l-15 -27h-212zM412 1579h123q32 -148 210 -148t210 148h123q-15 -134 -106 -215t-227 -81t-226.5 80.5t-106.5 215.5z" />
<glyph unicode="&#x4c3;" horiz-adv-x="1228" d="M191 0v1480h210v-639h10q83 0 125 40.5t146 217.5l63 108l52 92q59 101 119 141.5t150 40.5l26 -1v-154q-11 1 -16 1q-78 0 -162 -151l-39 -71l-31 -54q-105 -189 -191 -258q193 0 334.5 -154.5t141.5 -364.5q0 -239 -138.5 -404.5t-338.5 -165.5q-36 0 -85 11v157 q33 -14 67 -14q127 0 200 109.5t73 300.5q0 196 -121 306.5t-334 110.5h-51v-685h-210z" />
<glyph unicode="&#x4c4;" horiz-adv-x="1098" d="M197 0v1086h197v-475l18 1q72 4 104 27t69 94l34 66l22 46q73 152 129.5 196.5t179.5 44.5v-148q-59 0 -88 -27.5t-77 -127.5l-19 -40l-25 -55q-45 -94 -138 -139q163 -17 267 -129t104 -271q0 -187 -114.5 -316t-281.5 -129q-27 0 -60 6v149q39 -7 64 -7q85 0 140 87.5 t55 222.5q0 140 -93.5 220.5t-256.5 80.5h-33v-463h-197z" />
<glyph unicode="&#x4c7;" horiz-adv-x="1505" d="M191 0v1480h210v-624h704v624h210v-1500q0 -210 -73.5 -305t-234.5 -95q-103 0 -192 27v160q72 -32 144 -32q90 0 118 46t28 191v727h-704v-699h-210z" />
<glyph unicode="&#x4c8;" horiz-adv-x="1278" d="M197 0v1086h198v-441h487v441h198v-1178q0 -154 -85 -240.5t-236 -86.5q-74 0 -148 20v155q62 -27 125 -27q79 0 112.5 49.5t33.5 167.5v551h-487v-497h-198z" />
<glyph unicode="&#x4cb;" horiz-adv-x="1289" d="M80 990v490h210v-484q0 -172 59 -244.5t200 -72.5q193 0 339 153v648h210v-1480h-210v-321h-197v475h197v491q-163 -139 -382 -139q-199 0 -318 120q-63 63 -85.5 140t-22.5 224z" />
<glyph unicode="&#x4cc;" horiz-adv-x="1073" d="M80 840v246h197v-284q0 -163 38 -212q49 -66 144 -66q120 0 219 87v475h198v-1086h-198v-247h-197v420h197v283q-119 -80 -262 -80q-174 0 -264 113q-72 90 -72 351z" />
<glyph unicode="&#x2000;" horiz-adv-x="962" />
<glyph unicode="&#x2001;" horiz-adv-x="1925" />
<glyph unicode="&#x2002;" horiz-adv-x="962" />
<glyph unicode="&#x2003;" horiz-adv-x="1925" />
<glyph unicode="&#x2004;" horiz-adv-x="641" />
<glyph unicode="&#x2005;" horiz-adv-x="481" />
<glyph unicode="&#x2006;" horiz-adv-x="320" />
<glyph unicode="&#x2007;" horiz-adv-x="320" />
<glyph unicode="&#x2008;" horiz-adv-x="240" />
<glyph unicode="&#x2009;" horiz-adv-x="385" />
<glyph unicode="&#x200a;" horiz-adv-x="106" />
<glyph unicode="&#x2010;" horiz-adv-x="1185" d="M148 543v123h888v-123h-888z" />
<glyph unicode="&#x2011;" horiz-adv-x="1185" d="M148 543v123h888v-123h-888z" />
<glyph unicode="&#x2012;" horiz-adv-x="1185" d="M148 543v123h888v-123h-888z" />
<glyph unicode="&#x2013;" horiz-adv-x="1024" d="M105 543v123h814v-123h-814z" />
<glyph unicode="&#x2014;" horiz-adv-x="2048" d="M99 543v123h1851v-123h-1851z" />
<glyph unicode="&#x2018;" horiz-adv-x="648" d="M200 1012v214q0 327 247 353v-74q-96 -27 -96 -226v-21h96v-246h-247z" />
<glyph unicode="&#x2019;" horiz-adv-x="648" d="M200 1012v74q96 27 96 226v20h-96v247h247v-214q0 -329 -247 -353z" />
<glyph unicode="&#x201a;" horiz-adv-x="648" d="M200 0v247h247v-214q0 -303 -247 -329v74q96 27 96 202v20h-96z" />
<glyph unicode="&#x201c;" horiz-adv-x="765" d="M111 1061v166q0 303 197 352v-74q-70 -37 -70 -224v-23h70v-197h-197zM456 1061v166q0 303 198 352v-74q-71 -37 -71 -224v-23h71v-197h-198z" />
<glyph unicode="&#x201d;" horiz-adv-x="765" d="M111 1061v74q71 37 71 224v23h-71v197h197v-166q0 -303 -197 -352zM456 1061v74q71 37 71 224v23h-71v197h198v-166q0 -303 -198 -352z" />
<glyph unicode="&#x201e;" horiz-adv-x="765" d="M111 0v197h197v-166q0 -303 -197 -352v74q71 37 71 224v23h-71zM456 0v197h198v-166q0 -303 -198 -352v74q71 37 71 224v23h-71z" />
<glyph unicode="&#x2022;" d="M463 586q0 77 54 131t131 54t131 -54t54 -131t-54 -131t-131 -54t-131 54t-54 131z" />
<glyph unicode="&#x2026;" horiz-adv-x="2048" d="M243 0v197h197v-197h-197zM926 0v197h197v-197h-197zM1608 0v197h198v-197h-198z" />
<glyph unicode="&#x202f;" horiz-adv-x="385" />
<glyph unicode="&#x2039;" horiz-adv-x="679" d="M111 543l395 444l98 -74l-296 -370l296 -370l-98 -74z" />
<glyph unicode="&#x203a;" horiz-adv-x="679" d="M74 173l296 370l-296 370l99 74l394 -444l-394 -444z" />
<glyph unicode="&#x205f;" horiz-adv-x="481" />
<glyph unicode="&#x20ac;" horiz-adv-x="1294" d="M-29 539l29 147h104v100l2 7h-135l29 147h121v6q44 272 213 422t430 150q177 0 414 -91v-196q-139 65 -235.5 97t-194.5 32q-59 0 -113 -19t-101 -55t-85 -87t-71.5 -131t-33.5 -122v-6h610l-30 -147h-596v-39l2 -62v-6h573l-29 -147h-528l2 -4q39 -193 154.5 -300.5 t281.5 -107.5q189 0 396 154v-181q-105 -71 -202 -104t-222 -33q-89 0 -167 19t-144.5 56t-120.5 89.5t-96 120.5t-71 149q-38 107 -38 138v4h-148z" />
<glyph unicode="&#x2122;" horiz-adv-x="1653" d="M49 1379v101h685v-101h-266v-639h-154v639h-265zM857 740v740h204l179 -520l183 520h179v-740h-144v559l-179 -509h-124l-177 516v-566h-121z" />
<glyph unicode="&#x25fc;" horiz-adv-x="1085" d="M0 0v1085h1085v-1085h-1085z" />
</font>
</defs>
</svg>
